<?xml version="1.0" encoding="UTF-8" standalone="no"?>
<svg
   width="1024"
   height="1024"
   version="1.1"
   id="svg11"
   sodipodi:docname="app_icon.svg"
   inkscape:version="1.2.2 (b0a8486541, 2022-12-01)"
   xmlns:inkscape="http://www.inkscape.org/namespaces/inkscape"
   xmlns:sodipodi="http://sodipodi.sourceforge.net/DTD/sodipodi-0.dtd"
   xmlns:xlink="http://www.w3.org/1999/xlink"
   xmlns="http://www.w3.org/2000/svg"
   xmlns:svg="http://www.w3.org/2000/svg">
  <sodipodi:namedview
     id="namedview13"
     pagecolor="#ffffff"
     bordercolor="#000000"
     borderopacity="0.25"
     inkscape:showpageshadow="2"
     inkscape:pageopacity="0.0"
     inkscape:pagecheckerboard="0"
     inkscape:deskcolor="#d1d1d1"
     showgrid="true"
     inkscape:zoom="0.19091797"
     inkscape:cx="-1181.1356"
     inkscape:cy="382.36317"
     inkscape:window-width="1920"
     inkscape:window-height="1011"
     inkscape:window-x="0"
     inkscape:window-y="0"
     inkscape:window-maximized="1"
     inkscape:current-layer="svg11"
     showguides="true"
     inkscape:lockguides="true">
    <inkscape:grid
       type="xygrid"
       id="grid1443"
       visible="false" />
    <sodipodi:guide
       position="512.00288,1206.1806"
       orientation="1,0"
       id="guide1449"
       inkscape:locked="true" />
  </sodipodi:namedview>
  <defs
     id="defs5">
    <linearGradient
       inkscape:collect="always"
       id="linearGradient960">
      <stop
         style="stop-color:#2a7fff;stop-opacity:1;"
         offset="0"
         id="stop956" />
      <stop
         style="stop-color:#5599ff;stop-opacity:1"
         offset="1"
         id="stop958" />
    </linearGradient>
    <filter
       id="blur_shadow"
       x="-0.034951456"
       y="-0.034951456"
       width="1.0699029"
       height="1.0699029">
      <feGaussianBlur
         stdDeviation="12"
         id="feGaussianBlur2" />
    </filter>
    <linearGradient
       inkscape:collect="always"
       xlink:href="#linearGradient960"
       id="linearGradient962"
       x1="510.98721"
       y1="920.85187"
       x2="510.98721"
       y2="97.010475"
       gradientUnits="userSpaceOnUse" />
    <filter
       style="color-interpolation-filters:sRGB"
       inkscape:label="Drop Shadow"
       id="filter1926"
       x="-3.3123575"
       y="-1.6770912"
       width="8.0196348"
       height="4.5563727">
      <feFlood
         flood-opacity="0.498039"
         flood-color="rgb(0,0,0)"
         result="flood"
         id="feFlood1916" />
      <feComposite
         in="flood"
         in2="SourceGraphic"
         operator="in"
         result="composite1"
         id="feComposite1918" />
      <feGaussianBlur
         in="composite1"
         stdDeviation="10"
         result="blur"
         id="feGaussianBlur1920" />
      <feOffset
         dx="10"
         dy="10"
         result="offset"
         id="feOffset1922" />
      <feComposite
         in="SourceGraphic"
         in2="offset"
         operator="over"
         result="fbSourceGraphic"
         id="feComposite1924" />
      <feColorMatrix
         result="fbSourceGraphicAlpha"
         in="fbSourceGraphic"
         values="0 0 0 -1 0 0 0 0 -1 0 0 0 0 -1 0 0 0 0 1 0"
         id="feColorMatrix1976" />
      <feFlood
         id="feFlood1978"
         flood-opacity="0.498039"
         flood-color="rgb(0,0,0)"
         result="flood"
         in="fbSourceGraphic" />
      <feComposite
         in2="fbSourceGraphic"
         id="feComposite1980"
         in="flood"
         operator="in"
         result="composite1" />
      <feGaussianBlur
         id="feGaussianBlur1982"
         in="composite1"
         stdDeviation="115.514"
         result="blur" />
      <feOffset
         id="feOffset1984"
         dx="38.9389"
         dy="39.1636"
         result="offset" />
      <feComposite
         in2="offset"
         id="feComposite1986"
         in="fbSourceGraphic"
         operator="over"
         result="fbSourceGraphic" />
      <feColorMatrix
         result="fbSourceGraphicAlpha"
         in="fbSourceGraphic"
         values="0 0 0 -1 0 0 0 0 -1 0 0 0 0 -1 0 0 0 0 1 0"
         id="feColorMatrix2048" />
      <feFlood
         id="feFlood2050"
         flood-opacity="0.498039"
         flood-color="rgb(0,0,0)"
         result="flood"
         in="fbSourceGraphic" />
      <feComposite
         in2="fbSourceGraphic"
         id="feComposite2052"
         in="flood"
         operator="in"
         result="composite1" />
      <feGaussianBlur
         id="feGaussianBlur2054"
         in="composite1"
         stdDeviation="143.609"
         result="blur" />
      <feOffset
         id="feOffset2056"
         dx="50"
         dy="50"
         result="offset" />
      <feComposite
         in2="offset"
         id="feComposite2058"
         in="fbSourceGraphic"
         operator="over"
         result="fbSourceGraphic" />
      <feColorMatrix
         result="fbSourceGraphicAlpha"
         in="fbSourceGraphic"
         values="0 0 0 -1 0 0 0 0 -1 0 0 0 0 -1 0 0 0 0 1 0"
         id="feColorMatrix2216" />
      <feFlood
         id="feFlood2218"
         flood-opacity="0.498039"
         flood-color="rgb(0,0,0)"
         result="flood"
         in="fbSourceGraphic" />
      <feComposite
         in2="fbSourceGraphic"
         id="feComposite2220"
         in="flood"
         operator="out"
         result="composite1" />
      <feGaussianBlur
         id="feGaussianBlur2222"
         in="composite1"
         stdDeviation="20"
         result="blur" />
      <feOffset
         id="feOffset2224"
         dx="-14.4818"
         dy="-13.8391"
         result="offset" />
      <feComposite
         in2="fbSourceGraphic"
         id="feComposite2226"
         in="offset"
         operator="atop"
         result="composite2" />
    </filter>
  </defs>
  <g
     inkscape:groupmode="layer"
     id="layer2"
     inkscape:label="background">
    <path
       d="M924 355.412c0-9.782 0-18.35-.056-28.133-.049-8.241-.144-16.48-.368-24.716-.484-17.954-1.543-36.061-4.736-53.813-3.238-18.01-8.526-34.77-16.859-51.133a171.963 171.963 0 00-31.661-43.559 172.06 172.06 0 00-43.574-31.64c-16.381-8.335-33.159-13.621-51.188-16.858-17.755-3.188-35.867-4.245-53.82-4.73-8.243-.223-16.485-.317-24.73-.368-9.788-.06-19.576-.055-29.364-.055L553.997 100h-84.999l-111.637.407c-9.807 0-19.614-.005-29.421.055-8.262.051-16.52.145-24.778.368-17.995.485-36.148 1.543-53.945 4.735-18.053 3.236-34.857 8.52-51.259 16.849a172.405 172.405 0 00-43.667 31.644 171.994 171.994 0 00-31.718 43.551c-8.356 16.372-13.654 33.143-16.9 51.162-3.196 17.746-4.255 35.846-4.742 53.792-.222 8.237-.318 16.476-.368 24.716-.06 9.784-.563 21.937-.563 31.72v195.999l.508 112.429c0 9.796-.004 19.592.055 29.388.05 8.252.146 16.502.369 24.751.486 17.976 1.547 36.109 4.746 53.886 3.245 18.032 8.542 34.818 16.891 51.201a172.24 172.24 0 0031.722 43.619 172.444 172.444 0 0043.659 31.684c16.412 8.346 33.224 13.639 51.288 16.88 17.789 3.193 35.936 4.252 53.924 4.737 8.258.223 16.517.318 24.779.368 9.807.059 19.613.059 29.42.059h310.283c9.788 0 19.576 0 29.364-.059 8.245-.05 16.487-.145 24.73-.368 17.96-.486 36.078-1.546 53.841-4.741 18.018-3.241 34.788-8.532 51.159-16.873a172.004 172.004 0 0043.582-31.687 172.23 172.23 0 0031.659-43.612c8.337-16.391 13.625-33.184 16.865-51.229 3.19-17.77 4.248-35.896 4.733-53.865.223-8.25.318-16.5.367-24.751.056-9.796.056-19.592.056-29.388V355.412z"
       fill="rgba(0,0,0,0.3)"
       filter="url(#blur_shadow)"
       transform="translate(0,10)"
       id="path7" />
    <path
       d="m 924,355.412 c 0,-9.782 0,-18.35 -0.056,-28.133 -0.049,-8.241 -0.144,-16.48 -0.368,-24.716 -0.484,-17.954 -1.543,-36.061 -4.736,-53.813 -3.238,-18.01 -8.526,-34.77 -16.859,-51.133 a 171.963,171.963 0 0 0 -31.661,-43.559 172.06,172.06 0 0 0 -43.574,-31.64 c -16.381,-8.335 -33.159,-13.621 -51.188,-16.858 -17.755,-3.188 -35.867,-4.245 -53.82,-4.73 -8.243,-0.223 -16.485,-0.317 -24.73,-0.368 -9.788,-0.06 -19.576,-0.055 -29.364,-0.055 L 553.997,100 h -84.999 l -111.637,0.407 c -9.807,0 -19.614,-0.005 -29.421,0.055 -8.262,0.051 -16.52,0.145 -24.778,0.368 -17.995,0.485 -36.148,1.543 -53.945,4.735 -18.053,3.236 -34.857,8.52 -51.259,16.849 a 172.405,172.405 0 0 0 -43.667,31.644 171.994,171.994 0 0 0 -31.718,43.551 c -8.356,16.372 -13.654,33.143 -16.9,51.162 -3.196,17.746 -4.255,35.846 -4.742,53.792 -0.222,8.237 -0.318,16.476 -0.368,24.716 -0.06,9.784 -0.563,21.937 -0.563,31.72 v 195.999 l 0.508,112.429 c 0,9.796 -0.004,19.592 0.055,29.388 0.05,8.252 0.146,16.502 0.369,24.751 0.486,17.976 1.547,36.109 4.746,53.886 3.245,18.032 8.542,34.818 16.891,51.201 a 172.24,172.24 0 0 0 31.722,43.619 172.444,172.444 0 0 0 43.659,31.684 c 16.412,8.346 33.224,13.639 51.288,16.88 17.789,3.193 35.936,4.252 53.924,4.737 8.258,0.223 16.517,0.318 24.779,0.368 9.807,0.059 19.613,0.059 29.42,0.059 h 310.283 c 9.788,0 19.576,0 29.364,-0.059 8.245,-0.05 16.487,-0.145 24.73,-0.368 17.96,-0.486 36.078,-1.546 53.841,-4.741 18.018,-3.241 34.788,-8.532 51.159,-16.873 a 172.004,172.004 0 0 0 43.582,-31.687 172.23,172.23 0 0 0 31.659,-43.612 c 8.337,-16.391 13.625,-33.184 16.865,-51.229 3.19,-17.77 4.248,-35.896 4.733,-53.865 0.223,-8.25 0.318,-16.5 0.367,-24.751 C 924,687.019 924,677.223 924,667.427 Z"
       fill="#fff"
       id="path9"
       style="fill:url(#linearGradient962);fill-opacity:1" />
  </g>
  <path
     d="M 727.66578,785.55366 515.17506,573.06291 432.57899,655.65899 q 7.76544,12.00113 9.53032,23.29632 1.76487,11.2952 1.76487,24.70822 0,45.18078 -30.35583,75.53658 -30.35581,30.35583 -75.53658,30.35583 -45.18075,0 -75.53658,-30.35583 -30.35581,-30.35581 -30.35581,-75.53658 0,-45.18074 30.35581,-75.53657 30.35583,-30.35582 75.53658,-30.35582 12.7071,0 25.06121,3.52976 12.3541,3.52975 25.76714,10.58924 L 470.70023,530.00001 387.39821,446.698 q -12.00113,5.6476 -24.35524,7.76544 -12.35412,2.11785 -25.06121,2.11785 -45.18075,0 -75.53658,-30.35583 -30.3558,-30.35581 -30.3558,-75.53658 0,-45.18075 30.35581,-75.53658 30.35583,-30.35581 75.53658,-30.35581 45.18077,0 75.53658,30.35581 30.35582,30.35583 30.35582,75.53658 0,13.41304 -1.76488,25.41418 -1.76487,12.00115 -7.41247,22.59039 l 362.85795,362.85793 v 24.00228 z M 598.47708,493.9966 551.88443,447.40393 727.66578,271.62255 h 69.88899 v 23.29633 z M 337.98177,414.22432 q 26.82609,0 45.18077,-18.35468 18.35468,-18.35467 18.35468,-45.18077 0,-26.82607 -18.35468,-45.18075 -18.35468,-18.35467 -45.18077,-18.35467 -26.82607,0 -45.18075,18.35467 -18.35468,18.35468 -18.35468,45.18075 0,26.8261 18.35468,45.18077 18.35468,18.35468 45.18075,18.35468 z m 178.60517,129.18873 q 5.6476,0 9.53033,-3.88273 Q 530,535.64761 530,530 q 0,-5.64758 -3.88273,-9.53031 -3.88273,-3.88273 -9.53033,-3.88273 -5.6476,0 -9.5303,3.88273 -3.88274,3.88273 -3.88274,9.53031 0,5.64761 3.88274,9.53032 3.8827,3.88273 9.5303,3.88273 z M 337.98177,767.19898 q 26.82609,0 45.18077,-18.35468 18.35468,-18.35468 18.35468,-45.18077 0,-26.82606 -18.35468,-45.18074 -18.35468,-18.35469 -45.18077,-18.35469 -26.82607,0 -45.18075,18.35469 -18.35468,18.35468 -18.35468,45.18074 0,26.82609 18.35468,45.18077 18.35468,18.35468 45.18075,18.35468 z"
     id="path323"
     style="fill:#e6e6e6;stroke-width:0.705949" />
</svg>
